<svg xmlns="http://www.w3.org/2000/svg" viewBox="0 0 512 512">
  <!-- Font Awesome Free 6.4.0 by @fontawesome - https://fontawesome.com License - https://fontawesome.com/license (Commercial License) Copyright 2023 Fonticons, Inc. -->
  <path fill="#FF4757" d="M234.5 5.7c13.9-5 29.1-5 43.1 0l192 68.6C485 80 496 94.9 496 112v288c0 17.1-11 32-26.4 37.7l-192 68.6c-13.9 5-29.1 5-43.1 0l-192-68.6C27 432 16 417.1 16 400V112c0-17.1 11-32 26.4-37.7l192-68.6zM256 66L82.3 127.4 256 189.4l173.7-62L256 66zm32 368.6l160-57.1v-188L288 246.6v188z"/>
</svg>
