<svg xmlns="http://www.w3.org/2000/svg" viewBox="0 0 512 512">
  <path fill="#FF6B6B" d="M226.5 69c0-38.1 30.9-69 69-69s69 30.9 69 69c0 38.1-30.9 69-69 69s-69-30.9-69-69zm-34.9 83c-24.8-14.8-56.7-6.5-71.5 18.3l-10.9 18.2c-14.8 24.8-6.5 56.7 18.3 71.5 24.8 14.8 56.7 6.5 71.5-18.3l10.9-18.2c14.8-24.8 6.5-56.7-18.3-71.5zm195.9 18.3c-14.8-24.8-46.7-33.1-71.5-18.3-24.8 14.8-33.1 46.7-18.3 71.5l10.9 18.2c14.8 24.8 46.7 33.1 71.5 18.3 24.8-14.8 33.1-46.7 18.3-71.5l-10.9-18.2zM256 160c-132.5 0-240 107.5-240 240 0 25.4 4.3 49.8 12.1 72.5 4.9 14.4 20.6 22 35.1 17.5 35.1-10.8 72.8 5.7 87.7 39.2 4.1 9.3 13.3 15.2 23.5 15.2h163.2c10.3 0 19.4-5.9 23.5-15.2 14.9-33.5 52.6-50 87.7-39.2 14.5 4.5 30.2-3.1 35.1-17.5 7.9-22.7 12.1-47.1 12.1-72.5 0-132.5-107.5-240-240-240z"/>
</svg>
