<svg xmlns="http://www.w3.org/2000/svg" viewBox="0 0 512 512">
  <!-- Font Awesome Free 6.4.0 by @fontawesome - https://fontawesome.com License - https://fontawesome.com/license (Commercial License) Copyright 2023 Fonticons, Inc. -->
  <path fill="#cca43b" d="M256 32c14.2 0 27.3 7.5 34.5 19.8l216 368c7.3 12.4 7.3 27.7 .2 40.1S486.3 480 472 480H40c-14.3 0-27.6-7.7-34.7-20.1s-7-27.8 .2-40.1l216-368C228.7 39.5 241.8 32 256 32zm0 89.8L93.2 384H418.8L256 106.8zM240 328c0-8.8 7.2-16 16-16s16 7.2 16 16v32c0 8.8-7.2 16-16 16s-16-7.2-16-16V328zm32-88c0 8.8-7.2 16-16 16s-16-7.2-16-16v-8c0-8.8 7.2-16 16-16s16 7.2 16 16v8z"/>
</svg>
